<!DOCTYPE svg PUBLIC "-//W3C//DTD SVG 1.1//EN" "http://www.w3.org/Graphics/SVG/1.1/DTD/svg11.dtd">
<!-- Uploaded to: SVG Repo, www.svgrepo.com, Transformed by: SVG Repo Mixer Tools -->
<svg fill="#fff" version="1.1" id="Capa_1" xmlns="http://www.w3.org/2000/svg" xmlns:xlink="http://www.w3.org/1999/xlink" viewBox="-24.2 -24.2 268.40 268.40" xml:space="preserve" width="148px" height="148px" stroke="#fff">
<g id="SVGRepo_bgCarrier" stroke-width="0" transform="translate(35.19999999999999,35.19999999999999), scale(0.68)">
<rect x="-24.2" y="-24.2" width="268.40" height="268.40" rx="134.2" fill="#000" strokewidth="0"/>
</g>
<g id="SVGRepo_tracerCarrier" stroke-linecap="round" stroke-linejoin="round"/>
<g id="SVGRepo_iconCarrier"> <g> <path d="M110,0C49.346,0,0,49.346,0,110s49.346,110,110,110s110-49.346,110-110S170.654,0,110,0z M110,210 c-55.14,0-100-44.86-100-100S54.86,10,110,10s100,44.86,100,100S165.14,210,110,210z"/> <path d="M110,19.5c-49.902,0-90.5,40.598-90.5,90.5s40.598,90.5,90.5,90.5s90.5-40.598,90.5-90.5S159.902,19.5,110,19.5z M110,197.5c-48.248,0-87.5-39.252-87.5-87.5S61.752,22.5,110,22.5s87.5,39.252,87.5,87.5S158.248,197.5,110,197.5z"/> <path d="M71.444,84.169H91.13v40.813c0,5.915-2.877,11.505-7.695,14.953l-4.879,3.492l6.983,9.759l4.879-3.492 c7.96-5.696,12.712-14.934,12.712-24.712V84.169h11.943v62.374c0,9.925,8.075,18,18,18h6v-12h-6c-3.309,0-6-2.691-6-6V84.169 h21.483v-12H71.444V84.169z"/> <rect x="85.389" y="55.457" width="49.223" height="12"/> </g> </g>
</svg>