<!DOCTYPE svg PUBLIC "-//W3C//DTD SVG 1.1//EN" "http://www.w3.org/Graphics/SVG/1.1/DTD/svg11.dtd">
<!-- Uploaded to: SVG Repo, www.svgrepo.com, Transformed by: SVG Repo Mixer Tools -->
<svg fill="#ffffff" version="1.1" id="Capa_1" xmlns="http://www.w3.org/2000/svg" xmlns:xlink="http://www.w3.org/1999/xlink" viewBox="0 0 220.00 220.00" xml:space="preserve" width="148px" height="148px" stroke="#ffffff" stroke-width="1.7600000000000002">
<g id="SVGRepo_bgCarrier" stroke-width="0">
<rect x="0" y="0" width="220.00" height="220.00" rx="110" fill="#000" strokewidth="0"/>
</g>
<g id="SVGRepo_tracerCarrier" stroke-linecap="round" stroke-linejoin="round"/>
<g id="SVGRepo_iconCarrier"> <g> <path d="M110,0C49.346,0,0,49.346,0,110s49.346,110,110,110s110-49.346,110-110S170.654,0,110,0z M110,210 c-55.14,0-100-44.86-100-100S54.86,10,110,10s100,44.86,100,100S165.14,210,110,210z"/> <path d="M110,19.5c-49.902,0-90.5,40.598-90.5,90.5s40.598,90.5,90.5,90.5s90.5-40.598,90.5-90.5S159.902,19.5,110,19.5z M110,197.5c-48.248,0-87.5-39.252-87.5-87.5S61.752,22.5,110,22.5s87.5,39.252,87.5,87.5S158.248,197.5,110,197.5z"/> <rect x="121.183" y="50.833" width="12" height="9.667"/> <path d="M105.202,143.301c6.023,0,11.57-2.066,15.981-5.519v5.052h12V74.5h-12v22.357c-4.411-3.453-9.958-5.519-15.981-5.519 c-14.327,0-25.982,11.655-25.982,25.981C79.22,131.646,90.875,143.301,105.202,143.301z M105.202,101.337 c8.812,0,15.981,7.169,15.981,15.981c0,8.813-7.169,15.982-15.981,15.982c-8.813,0-15.982-7.169-15.982-15.982 C89.22,108.507,96.389,101.337,105.202,101.337z"/> <rect x="87.326" y="148.167" width="45.857" height="10"/> <rect x="108.683" y="62.5" width="37" height="10"/> </g> </g>
</svg>